<svg xmlns="http://www.w3.org/2000/svg" viewBox="0 0 240 180" fill="none" aria-hidden="true">
  <path d="M48 118c-8-22 4-44 22-48 10-2 20 4 28 14 6-18 22-30 38-28 18 2 28 22 22 42-8 28-32 48-60 62-28-14-52-34-50-42z" stroke="#7a8eaa" stroke-width="1.35" stroke-linejoin="round"/>
  <path d="M70 108c6-16 18-24 30-18" stroke="#c989a3" stroke-width="1.1" stroke-linecap="round"/>
  <path d="M132 96c10-10 24-12 34-4" stroke="#c989a3" stroke-width="1.1" stroke-linecap="round"/>
  <path d="M86 128c10 8 22 14 34 16 14-2 26-8 36-16" stroke="#9eb6d4" stroke-width="1.05" stroke-linecap="round"/>
  <path d="M42 92c-10-6-16-18-12-28 6-12 22-14 30-4" stroke="#a8b8d0" stroke-width="1.1" stroke-linecap="round"/>
  <path d="M198 90c10-8 14-22 6-32-8-10-24-8-30 4" stroke="#a8b8d0" stroke-width="1.1" stroke-linecap="round"/>
</svg>
